<svg xmlns="http://www.w3.org/2000/svg" viewBox="0 0 32 32">
  <defs>
    <linearGradient id="g" x1="0%" y1="0%" x2="100%" y2="100%">
      <stop offset="0%" stop-color="#a855f7"/>
      <stop offset="100%" stop-color="#00f0ff"/>
    </linearGradient>
  </defs>
  <rect width="32" height="32" rx="6" fill="#0a0e1a"/>
  <path d="M16 5C10.5 5 6 9.5 6 15c0 3 1.3 5.6 3.4 7.4.2.2.6.1.6-.2v-2.4c0-.3-.1-.5-.3-.7C8.6 18 8 16.6 8 15c0-4.4 3.6-8 8-8s8 3.6 8 8c0 1.6-.6 3-1.7 4.1-.2.2-.3.4-.3.7v2.4c0 .3.4.4.6.2C24.7 20.6 26 18 26 15c0-5.5-4.5-10-10-10z" fill="url(#g)"/>
  <circle cx="12" cy="15" r="1.5" fill="#00f0ff"/>
  <circle cx="20" cy="15" r="1.5" fill="#a855f7"/>
  <path d="M12 20c0 2.2 1.8 4 4 4s4-1.8 4-4" stroke="url(#g)" stroke-width="1.5" fill="none" stroke-linecap="round"/>
  <line x1="16" y1="12" x2="16" y2="8" stroke="#00f0ff" stroke-width="1" stroke-linecap="round" opacity="0.6"/>
  <line x1="13" y1="10" x2="11" y2="7" stroke="#a855f7" stroke-width="0.8" stroke-linecap="round" opacity="0.4"/>
  <line x1="19" y1="10" x2="21" y2="7" stroke="#00f0ff" stroke-width="0.8" stroke-linecap="round" opacity="0.4"/>
</svg>
